<svg version="1.1" viewBox="0.0 0.0 960.0 960.0" fill="none" stroke="none" stroke-linecap="square" stroke-miterlimit="10" xmlns:xlink="http://www.w3.org/1999/xlink" xmlns="http://www.w3.org/2000/svg"><clipPath id="p.0"><path d="m0 0l960.0 0l0 960.0l-960.0 0l0 -960.0z" clip-rule="nonzero"/></clipPath><g clip-path="url(#p.0)"><path fill="#000000" fill-opacity="0.0" d="m0 0l960.0 0l0 960.0l-960.0 0z" fill-rule="evenodd"/><path fill="#20c914" d="m0 480.0l0 0c0 -265.09668 214.90332 -480.0 480.0 -480.0l0 0c127.303894 0 249.3938 50.571285 339.41125 140.58875c90.017456 90.017456 140.58875 212.10733 140.58875 339.41125l0 0c0 265.09668 -214.90332 480.0 -480.0 480.0l0 0c-265.09668 0 -480.0 -214.90332 -480.0 -480.0z" fill-rule="evenodd"/><defs><linearGradient id="p.1" gradientUnits="userSpaceOnUse" gradientTransform="matrix(18.447278619225802 18.44727861940164 -18.44727861940164 18.447278619225802 0.0 0.0)" spreadMethod="pad" x1="11.123845898364088" y1="-1.8520812563012905" x2="24.168017928321518" y2="11.192138326130962"><stop offset="0.0" stop-color="#ffffff"/><stop offset="0.69" stop-color="#ffffff"/><stop offset="0.79" stop-color="#20c914"/><stop offset="1.0" stop-color="#20c914"/></linearGradient></defs><path fill="url(#p.1)" d="m440.15146 211.1083l0 0c22.129517 -22.129517 58.008575 -22.129517 80.13809 0l160.27136 160.27136l0 0c10.626953 10.626984 16.597168 25.040253 16.597168 40.06906c0 15.028809 -5.970215 29.442047 -16.597168 40.06903l-160.71228 160.71228c-22.129547 22.129578 -58.008606 22.129578 -80.13812 0l-160.27136 -160.27133c-22.129517 -22.129517 -22.129517 -58.008575 0 -80.13809z" fill-rule="evenodd"/><path fill="#ffffff" d="m383.73227 480.4521l0 0c0 -17.722748 14.367157 -32.089874 32.089905 -32.089874l128.35568 0l0 0c8.510742 0 16.672913 3.38089 22.690979 9.398895c6.0180054 6.018036 9.398865 14.180206 9.398865 22.690979l0 276.41864c0 17.722778 -14.367126 32.089905 -32.089844 32.089905l-128.35568 0c-17.722748 0 -32.089905 -14.367126 -32.089905 -32.089905z" fill-rule="evenodd"/></g></svg>